<svg width="118" height="133" viewBox="0 0 118 133" fill="none" xmlns="http://www.w3.org/2000/svg">
<path d="M87.7836 26.2108C86.4339 24.8606 86.4339 22.6772 87.7836 21.327L89.4271 19.6893C90.7821 18.3445 92.9733 18.3445 94.3283 19.6893C95.6729 21.0399 95.6729 23.2182 94.3283 24.5689L92.6806 26.2108C91.3251 27.5505 89.139 27.5505 87.7836 26.2108Z" fill="#83FFA3"/>
<path opacity="0.4" d="M87.7836 26.2108C86.4339 24.8606 86.4339 22.6772 87.7836 21.327L89.4271 19.6893C90.7821 18.3445 92.9733 18.3445 94.3283 19.6893C95.6729 21.0399 95.6729 23.2182 94.3283 24.5689L92.6806 26.2108C91.3251 27.5505 89.139 27.5505 87.7836 26.2108Z" fill="white"/>
<path d="M90.0972 23.9181C88.3547 22.1774 88.3547 19.3598 90.0972 17.6191L93.3169 14.4109C95.0638 12.6746 97.8915 12.6746 99.6384 14.4109C101.383 16.1506 101.383 18.9701 99.6384 20.7098L96.4102 23.9181C94.6624 25.6442 91.845 25.6442 90.0972 23.9181Z" fill="#83FFA3"/>
<path d="M94.5854 19.429C91.6065 16.4758 86.7927 16.4758 83.8137 19.429L94.5854 30.1666C97.5474 27.1959 97.5474 22.3998 94.5854 19.429Z" fill="#83FFA3"/>
<path d="M98.9556 40.2491C98.5949 40.2491 98.3024 39.9577 98.3024 39.5982C98.3024 39.2387 98.5949 38.9473 98.9556 38.9473C105.473 38.9473 110.756 33.6831 110.756 27.1893C110.756 20.6955 105.473 15.4313 98.9556 15.4313C98.7105 15.4509 98.4751 15.3318 98.3465 15.1229C98.2178 14.9141 98.2178 14.6509 98.3465 14.4421C98.4751 14.2332 98.7105 14.114 98.9556 14.1337C103.693 14.049 108.108 16.5191 110.502 20.594C112.896 24.6689 112.896 29.7139 110.502 33.7888C108.108 37.8636 103.693 40.3337 98.9556 40.2491Z" fill="#83FFA3"/>
<path fill-rule="evenodd" clip-rule="evenodd" d="M99.9334 58.0793L114.843 128.627L115.581 128.606L115.442 130.63H81.3989L81.5675 128.149H83.8643L83.8348 128.606H94.1219L105.682 95.2388L97.94 58.6211L99.9334 58.0793ZM112.736 128.627L105.993 96.6582L94.9015 128.627H112.736Z" fill="#83FFA3"/>
<path fill-rule="evenodd" clip-rule="evenodd" d="M25.7071 58.1003L40.6004 128.627H41.3379L41.1988 130.651H7.16006L7.32442 128.17H9.62542L9.59171 128.627H19.8914L31.4512 95.2598L23.7138 58.642L25.7071 58.1003ZM38.4933 128.627L31.7504 96.6582L20.65 128.627H38.4933Z" fill="#83FFA3"/>
<path d="M106.735 93.114L104.818 98.6445H30.7601L32.6734 93.114H106.735Z" fill="#83FFA3"/>
<path d="M103.819 97.2839L104.818 98.6445H30.7601L29.7613 97.2839H103.819Z" fill="#83FFA3"/>
<path opacity="0.2" d="M103.819 97.2839L104.818 98.6445H30.7601L29.7613 97.2839H103.819Z" fill="black"/>
<path d="M91.9051 84.5853H1.44971L0.139069 83.2835L116.584 33.925L117.89 35.2268L91.9051 84.5853Z" fill="#83FFA3"/>
<path opacity="0.4" d="M91.9051 84.5853H1.44971L0.139069 83.2835L116.584 33.925L117.89 35.2268L91.9051 84.5853Z" fill="black"/>
<path d="M12.9575 55.7741L15.4675 51.0022L15.8408 51.1971L13.3308 55.9691L12.9575 55.7741Z" fill="#83FFA3"/>
<path d="M10.9375 59.6101L12.1309 57.3412L12.5042 57.5362L11.3108 59.805L10.9375 59.6101Z" fill="#83FFA3"/>
<path d="M90.5945 83.2835H0.139069L26.1286 33.925H116.584L90.5945 83.2835Z" fill="#83FFA3"/>
<path opacity="0.3" d="M81.5001 75.3676L17.4809 75.5944L36.4199 40.2952C51.5913 41.3786 74.3147 41.4794 99.1706 40.988L81.5001 75.3676Z" fill="black"/>
<path d="M80.5772 75.5944H17.1184L35.3494 40.9671C54.8953 41.6894 75.8277 41.2275 98.3741 40.606C94.8804 49.3321 88.5422 61.9929 80.5772 75.5944Z" fill="white"/>
<g opacity="0.6">
<path d="M28.2947 71.5127C34.2593 71.4791 40.2239 71.4511 46.1886 71.4287L65.3846 71.3405L75.0227 71.2943C75.1023 71.2815 75.1608 71.213 75.1608 71.1326C75.1608 71.0523 75.1023 70.9838 75.0227 70.9709L57.1288 71.0549L37.9328 71.1389L28.2947 71.1851C28.2039 71.1851 28.1303 71.2584 28.1303 71.3489C28.1303 71.4393 28.2039 71.5127 28.2947 71.5127Z" fill="#83FFA3"/>
<path d="M74.2346 71.8276C78.0584 64.5769 81.9173 57.3429 85.8113 50.1257C86.9351 48.0485 88.0589 45.9712 89.1827 43.894C89.2838 43.7092 89.0015 43.5454 88.9003 43.726C84.967 50.9404 81.08 58.1744 77.2394 65.4279C76.1353 67.508 75.0367 69.5866 73.9438 71.6639C73.8469 71.8486 74.125 72.0124 74.2262 71.8276H74.2346Z" fill="#83FFA3"/>
<path d="M89.3766 44.0452C83.3838 44.0788 77.3925 44.1068 71.4026 44.1292L51.979 44.2173L42.3704 44.2635C42.2796 44.2635 42.2061 44.3369 42.2061 44.4273C42.2061 44.5178 42.2796 44.5911 42.3704 44.5911C48.3631 44.5575 54.3544 44.5295 60.3443 44.5071L79.768 44.4189L89.3766 44.3727C89.4673 44.3727 89.5409 44.2994 89.5409 44.2089C89.5409 44.1185 89.4673 44.0452 89.3766 44.0452Z" fill="#83FFA3"/>
<path d="M43.504 43.4573C39.6438 50.7893 35.7427 58.103 31.801 65.3986C30.6772 67.4899 29.5449 69.5783 28.4043 71.6639C28.3031 71.8487 28.5855 72.0125 28.6866 71.8277C32.6537 64.549 36.587 57.2366 40.4866 49.8906C41.5936 47.8022 42.6977 45.7123 43.799 43.6211C43.9002 43.4363 43.6178 43.2726 43.5167 43.4573H43.504Z" fill="#83FFA3"/>
<path d="M49.8845 68.0107L56.4714 55.0685L58.2456 51.5915C58.3426 51.4067 58.0602 51.2387 57.9633 51.4277L51.1656 64.7394L49.5853 67.8259C49.4926 68.0149 49.7749 68.1787 49.8676 67.9897L49.8845 68.0107Z" fill="#83FFA3"/>
<path d="M34.2495 68.0652L38.0424 60.6325C38.1351 60.4435 37.8527 60.2798 37.76 60.4645L33.9671 67.9015C33.8744 68.0904 34.1568 68.2542 34.2495 68.0652Z" fill="#83FFA3"/>
<path d="M71.6428 68.0107C74.7993 62.3374 77.585 56.4668 80.5771 50.7054C81.3104 49.2944 82.0521 47.8835 82.8276 46.5061C82.9287 46.3213 82.6463 46.1576 82.5452 46.3423C79.3887 52.0114 76.5988 57.8862 73.6109 63.6434C72.8776 65.0586 72.1359 66.4653 71.3605 67.8427C71.2593 68.0233 71.5375 68.1912 71.6428 68.0065V68.0107Z" fill="#83FFA3"/>
<path d="M54.3263 67.9685C57.1921 62.354 60.0873 56.748 62.9446 51.1293L63.9138 49.2228L64.4364 48.194L64.6935 47.6817C64.7651 47.5431 64.8747 47.1568 65.018 47.0812C65.2291 47.0517 65.4433 47.0517 65.6543 47.0812H66.4593H68.1829C70.748 47.056 73.3117 47.035 75.874 47.0182C78.4658 47.0182 81.0533 46.9972 83.6451 47.0434C83.7247 47.0306 83.7832 46.9621 83.7832 46.8817C83.7832 46.8014 83.7247 46.7329 83.6451 46.7201C77.3953 46.6109 71.1413 46.7201 64.8958 46.7914C64.8371 46.7907 64.7825 46.8211 64.7525 46.8712C61.2209 53.8798 57.6135 60.8507 54.044 67.8383C53.9471 68.0272 54.2294 68.191 54.3263 68.0021V67.9685Z" fill="#83FFA3"/>
<path d="M71.6681 67.8888C70.1299 62.3667 68.2967 56.9286 66.5351 51.4779C66.0379 49.9438 65.5434 48.4111 65.0517 46.8797C64.9885 46.6782 64.6724 46.7621 64.7356 46.9637C66.5183 52.553 68.3894 58.117 70.1046 63.7273C70.5261 65.1382 70.9475 66.5534 71.3689 67.9769C71.397 68.0593 71.4848 68.1054 71.5689 68.082C71.6529 68.0585 71.7039 67.9737 71.685 67.8888H71.6681Z" fill="#83FFA3"/>
<path d="M82.739 46.7327C79.258 49.6722 75.5242 52.2758 71.803 54.8877C67.7741 57.7138 63.7115 60.4896 59.7543 63.4081C57.7989 64.8484 55.8645 66.3224 54.0103 67.8887C53.8501 68.0231 54.0819 68.2541 54.242 68.1197C57.7905 65.1256 61.5918 62.438 65.3888 59.7673C69.3882 56.9538 73.4297 54.1948 77.3743 51.3015C79.2791 49.9074 81.1671 48.4796 82.9708 46.9637C83.131 46.8251 82.8992 46.5983 82.739 46.7327Z" fill="#83FFA3"/>
<path d="M53.7153 67.9225C58.5364 68.061 63.3576 68.1156 68.1787 68.1198C69.3418 68.1198 70.5092 68.1198 71.6723 68.0946C71.752 68.0818 71.8105 68.0133 71.8105 67.933C71.8105 67.8526 71.752 67.7841 71.6723 67.7713C66.8386 67.8637 61.9795 67.7713 57.1583 67.6789C56.0121 67.6537 54.8616 67.6327 53.7153 67.5991C53.6357 67.6119 53.5771 67.6804 53.5771 67.7608C53.5771 67.8412 53.6357 67.9096 53.7153 67.9225Z" fill="#83FFA3"/>
<path d="M47.0314 68.1197C50.1036 62.4213 52.9314 56.6053 55.9109 50.8522C56.6442 49.4301 57.3887 48.0135 58.1445 46.6025C58.2414 46.4178 57.9591 46.254 57.8621 46.4388C54.7899 52.1372 51.9621 57.9532 48.9826 63.7062C48.2493 65.1298 47.5118 66.5492 46.7491 67.9559C46.6521 68.1407 46.9345 68.3045 47.0314 68.1197Z" fill="#83FFA3"/>
<path d="M37.958 68.0484C39.8798 64.2859 41.8043 60.5247 43.7316 56.7649C44.6925 54.8837 45.6533 53.0024 46.6142 51.1211C47.0862 50.2015 47.554 49.2776 48.0218 48.358C48.1735 48.0556 48.4053 47.2913 48.734 47.1612C49.0132 47.1178 49.2976 47.1178 49.5768 47.1612H50.5124C52.9567 47.1192 55.4052 47.073 57.8537 47.1612C58.0602 47.1612 58.0602 46.842 57.8537 46.8336C54.7478 46.737 51.6418 46.8336 48.5401 46.8798C48.4815 46.879 48.4269 46.9094 48.3968 46.9596C44.8526 53.9598 41.2578 60.939 37.6883 67.9267C37.5914 68.1114 37.8738 68.2794 37.9707 68.0904L37.958 68.0484Z" fill="#83FFA3"/>
<path d="M47.0567 68.0399C47.6846 61.0313 48.0386 54.0059 48.6876 47.0015C48.7087 46.7915 48.3842 46.7915 48.3631 47.0015C47.7141 54.0059 47.3601 61.0313 46.728 68.0399C46.728 68.2457 47.0356 68.2457 47.0567 68.0399Z" fill="#83FFA3"/>
<path d="M57.9 46.8379C52.6743 52.4565 47.2463 57.882 41.9405 63.4208C40.4936 64.9242 39.0608 66.4401 37.642 67.9687C37.4987 68.1199 37.7305 68.3508 37.8738 68.1954C43.129 62.5264 48.5991 57.0547 53.9555 51.4781C55.3602 50.0167 56.7523 48.547 58.1318 47.0688C58.2751 46.9176 58.0433 46.6867 57.9 46.8379Z" fill="#83FFA3"/>
<path d="M37.5535 68.0106C40.6594 68.1618 43.7822 68.2962 46.8923 68.208C47.1031 68.208 47.1031 67.8762 46.8923 67.8846C43.7822 67.9686 40.6594 67.8384 37.5535 67.6873C37.3428 67.6873 37.3428 68.0022 37.5535 68.0106Z" fill="#83FFA3"/>
<path d="M42.5643 48.7233C42.4068 48.9828 42.3598 49.2942 42.4336 49.5884C42.5135 49.8382 42.7177 50.0289 42.9731 50.0923C43.5978 50.194 44.2353 50.0105 44.7093 49.5926C45.2029 49.2337 45.4818 48.6511 45.4511 48.043C45.3792 47.5324 44.922 47.165 44.4059 47.2032C44.0457 47.244 43.7122 47.4124 43.4661 47.6777C43.3295 47.8033 43.2 47.9365 43.0784 48.0766C42.9614 48.1936 42.8759 48.338 42.8298 48.4965C42.7918 48.7023 43.1079 48.7905 43.1458 48.5847C43.1838 48.379 43.4198 48.1648 43.5673 48.0178C43.7328 47.8324 43.9332 47.6811 44.1573 47.5727C44.3362 47.493 44.5408 47.4933 44.7196 47.5736C44.8983 47.6538 45.0341 47.8063 45.0928 47.9926C45.1659 48.4383 45.0072 48.8904 44.6714 49.1936C44.3151 49.5633 43.8355 49.7903 43.3228 49.8319C43.1127 49.8617 42.9021 49.7806 42.7666 49.6178C42.66 49.3892 42.6808 49.1218 42.8213 48.9123C42.9183 48.7275 42.6359 48.5637 42.539 48.7485L42.5643 48.7233Z" fill="#83FFA3"/>
</g>
<path opacity="0.2" d="M116.584 33.9249L90.6071 83.2833H0.139069L26.1286 33.9249H52.0591L38.8431 39.9592H38.8136C32.0707 42.4074 26.6806 46.1574 23.9245 50.8396C17.6031 61.5646 27.5361 73.0958 46.0916 76.6316C64.6471 80.1674 84.7999 74.3052 91.1086 63.5802C92.4252 61.4359 93.0816 58.9538 92.9966 56.4414L94.3579 33.8997L116.584 33.9249Z" fill="black"/>
<path d="M34.604 25.6308C33.5089 27.5482 32.3969 29.5369 31.3356 31.5046C30.2744 33.4724 29.2215 35.4569 28.3505 37.4372C28.1222 37.9323 27.9277 38.4232 27.7248 38.914C27.7036 38.9602 27.7248 38.914 27.7248 38.914C27.7248 38.914 27.7248 38.9476 27.6994 38.9812C27.6845 39.1066 27.6845 39.2333 27.6994 39.3588C27.7779 39.7674 27.9071 40.1648 28.0842 40.5419C28.2787 40.9615 28.507 41.4272 28.7649 41.8761C29.9026 43.744 31.1654 45.534 32.5449 47.2339L30.8959 48.975C28.9334 47.5471 27.1655 45.8731 25.636 43.9949C24.7491 42.9344 24.0629 41.7233 23.6107 40.4203C23.4768 39.9937 23.3944 39.5529 23.3655 39.107C23.3512 38.8439 23.3597 38.58 23.3909 38.3183C23.4055 38.1773 23.4281 38.0372 23.4585 37.8987C23.4585 37.8274 23.4966 37.7519 23.5135 37.6805L23.5685 37.4917C23.7629 36.9127 23.949 36.3254 24.1604 35.7632C24.989 33.5585 25.9346 31.399 26.9933 29.2936C28.0546 27.1958 29.1581 25.1861 30.3758 23.1638L34.604 25.6308Z" fill="#FFC3BD"/>
<path d="M31.9318 46.6799L34.1812 47.41L32.2912 50.5734C32.2912 50.5734 30.6338 49.8308 30.304 48.3246L31.9318 46.6799Z" fill="#FFC3BD"/>
<path d="M37.2593 48.6352L35.0649 51.0729L32.2954 50.5778L34.1854 47.4143L37.2593 48.6352Z" fill="#FFC3BD"/>
<path d="M47.7452 10.9084C47.6818 11.156 47.7452 11.3909 47.927 11.4329C48.1089 11.4748 48.2738 11.307 48.3499 11.0595C48.426 10.8119 48.3499 10.5728 48.168 10.5308C47.9862 10.4889 47.8087 10.6567 47.7452 10.9084Z" fill="#263238"/>
<path d="M47.741 11.3867C47.8434 12.2221 48.0611 13.0395 48.3879 13.816C47.9741 13.9777 47.5093 13.9485 47.1194 13.7362L47.741 11.3867Z" fill="#ED847E"/>
<path d="M47.1871 9.29319C47.1316 9.26918 47.0957 9.21481 47.0957 9.15473C47.0957 9.09465 47.1316 9.04029 47.1871 9.01628C47.6384 8.82723 48.1542 8.86792 48.5697 9.12536C48.637 9.17574 48.6536 9.26915 48.6078 9.33934C48.5585 9.40612 48.4642 9.42109 48.3964 9.3729C48.0632 9.17456 47.6545 9.14649 47.297 9.29738C47.2613 9.3105 47.2217 9.30899 47.1871 9.29319Z" fill="#263238"/>
<path d="M39.124 11.8818C39.5848 14.2104 40.0457 18.4773 38.4009 20.0297C38.4009 20.0297 39.0436 22.396 43.4029 22.396C48.2019 22.396 45.6988 20.0297 45.6988 20.0297C43.0773 19.4129 43.1619 17.4829 43.5847 15.6746L39.124 11.8818Z" fill="#FFC3BD"/>
<path d="M37.5976 21.2295C37.3735 19.9709 37.124 18.5444 37.9527 18.1793C38.8618 17.7598 43.6397 17.7346 45.1829 18.7919C46.7262 19.8492 46.0286 22.2826 46.0286 22.2826L37.5976 21.2295Z" fill="#263238"/>
<path opacity="0.6" d="M37.5976 21.2295C37.3735 19.9709 37.124 18.5444 37.9527 18.1793C38.8618 17.7598 43.6397 17.7346 45.1829 18.7919C46.7262 19.8492 46.0286 22.2826 46.0286 22.2826L37.5976 21.2295Z" fill="#83FFA3"/>
<path fill-rule="evenodd" clip-rule="evenodd" d="M23.0864 128.288C22.8367 128.465 22.5484 128.487 22.2873 128.349C22.0132 128.264 21.7465 128.134 21.4924 127.961C21.4643 127.945 21.4457 127.906 21.4459 127.862C21.4486 127.818 21.4683 127.78 21.4966 127.764C21.5389 127.733 22.541 127.141 22.9638 127.443C23.0595 127.505 23.1321 127.624 23.1625 127.77C23.2169 127.948 23.1861 128.157 23.0864 128.288ZM22.9004 127.647L22.8116 127.603V127.634C22.4405 127.593 22.0678 127.673 21.7207 127.868C22.1774 128.115 22.8158 128.331 22.9892 128.115C23.0146 128.097 23.0568 128.035 23.0146 127.838C22.9976 127.753 22.9558 127.683 22.9004 127.647Z" fill="#83FFA3"/>
<path fill-rule="evenodd" clip-rule="evenodd" d="M21.5305 127.776H21.4967C21.4827 127.774 21.4696 127.769 21.4586 127.76C21.4379 127.74 21.4298 127.711 21.4375 127.684C21.4379 127.683 21.4386 127.681 21.4395 127.678C21.4682 127.59 21.7387 126.758 22.1478 126.547C22.2521 126.492 22.3747 126.483 22.486 126.522C22.6014 126.546 22.6831 126.648 22.6805 126.765C22.6721 127.126 21.8941 127.672 21.5305 127.776ZM22.4353 126.648H22.4142C22.3494 126.63 22.2805 126.636 22.2197 126.665C21.9385 126.899 21.7351 127.212 21.6362 127.563C22.0125 127.386 22.5283 126.958 22.5283 126.744C22.5283 126.723 22.5283 126.677 22.4353 126.648Z" fill="#83FFA3"/>
<path fill-rule="evenodd" clip-rule="evenodd" d="M46.8911 129.57C46.7558 129.824 46.3711 129.907 45.9483 129.907C45.6236 129.903 45.2998 129.861 44.98 129.783C44.9496 129.772 44.9264 129.737 44.9208 129.694C44.9149 129.649 44.9302 129.604 44.9589 129.582C44.9969 129.546 46.1174 128.654 46.6501 128.855C46.7516 128.887 46.8388 128.977 46.8911 129.103C46.9625 129.243 46.9625 129.43 46.8911 129.57ZM46.6036 129.038C46.5545 129.029 46.5047 129.029 46.4556 129.038H46.443C46.0039 129.112 45.579 129.302 45.1914 129.599C45.7876 129.718 46.5994 129.712 46.7516 129.422C46.7854 129.381 46.8066 129.316 46.7516 129.186C46.7187 129.111 46.6653 129.057 46.6036 129.038Z" fill="#83FFA3"/>
<path fill-rule="evenodd" clip-rule="evenodd" d="M45.0096 129.505H44.98C44.9644 129.508 44.9483 129.506 44.9335 129.501C44.9112 129.484 44.8998 129.457 44.9039 129.429C44.9039 129.396 44.9758 128.536 45.3986 128.204C45.5154 128.105 45.6684 128.058 45.8214 128.074C46.0286 128.095 46.1047 128.2 46.1047 128.284C46.1639 128.666 45.3944 129.333 45.0096 129.505ZM45.8045 128.213H45.7622C45.6649 128.213 45.5708 128.248 45.4958 128.309C45.2571 128.586 45.1096 128.929 45.073 129.291C45.4705 129.052 45.9905 128.511 45.9567 128.297C45.9565 128.296 45.9563 128.295 45.956 128.294C45.9514 128.274 45.9373 128.213 45.8045 128.213Z" fill="#83FFA3"/>
<path d="M41.4495 129.43H44.6587L44.9758 122.054H41.7708L41.4495 129.43Z" fill="#FFC3BD"/>
<path d="M17.9323 126.929L21.0654 127.604L24.2154 120.736L21.0781 120.061L17.9323 126.929Z" fill="#FFC3BD"/>
<path d="M21.3698 127.29L17.8435 126.535C17.7154 126.507 17.5852 126.572 17.5306 126.69L16.3087 129.321C16.2491 129.451 16.2528 129.601 16.3187 129.729C16.3846 129.856 16.5054 129.947 16.6469 129.975C17.8815 130.218 18.4946 130.273 20.0295 130.609C20.985 130.814 23.1372 131.334 24.4521 131.616C25.7671 131.897 26.2238 130.642 25.7206 130.411C23.4205 129.367 22.4607 128.448 21.8349 127.592C21.7226 127.438 21.557 127.33 21.3698 127.29Z" fill="#263238"/>
<path d="M44.6375 129.06H41.1324C41.0013 129.06 40.888 129.151 40.8618 129.278L40.2275 132.106C40.1949 132.245 40.2285 132.391 40.3186 132.501C40.4086 132.612 40.5451 132.675 40.6884 132.673C41.9569 132.652 43.7792 132.58 45.369 132.58C47.2252 132.58 48.8277 132.681 51.0094 132.681C52.3244 132.681 52.7007 131.359 52.1383 131.238C49.631 130.692 47.5803 130.634 45.4113 129.308C45.181 129.157 44.9134 129.071 44.6375 129.06Z" fill="#263238"/>
<path d="M51.0347 23.877C52.0791 26.2139 53.2207 28.6138 54.4173 30.9088C55.0135 32.0583 55.635 33.1911 56.2777 34.2652C56.8991 35.3268 57.5853 36.3496 58.3326 37.328L58.6032 37.6636C58.6709 37.7266 58.6032 37.6972 58.7089 37.7727C58.8776 37.9193 59.0587 38.0512 59.2501 38.1671C59.7576 38.4742 60.2813 38.7543 60.8188 39.0062C61.9519 39.5475 63.157 40.0677 64.3789 40.5586C66.8186 41.5446 69.3301 42.4886 71.8247 43.4326L71.2159 45.7485C68.5091 45.3173 65.8274 44.7431 63.1823 44.0283C61.8547 43.6507 60.527 43.2647 59.1867 42.7697C58.4816 42.5112 57.7926 42.2114 57.1233 41.8718C56.7259 41.6674 56.3455 41.4316 55.986 41.167C55.7566 40.9958 55.5416 40.8064 55.3433 40.6005L54.9501 40.181C53.9848 39.0982 53.1041 37.9438 52.3159 36.728C51.5337 35.5575 50.8276 34.3617 50.1511 33.1534C48.8144 30.7479 47.6145 28.27 46.5571 25.7314L51.0347 23.877Z" fill="#FFC3BD"/>
<path d="M31.6654 20.7514C28.6592 21.4353 23.6107 36.2541 23.6107 36.2541L28.5239 37.8736C28.5239 37.8736 33.5385 30.5019 35.2425 26.965C37.0226 23.2268 34.7436 20.0507 31.6654 20.7514Z" fill="#83FFA3"/>
<path opacity="0.5" d="M31.6654 20.7514C28.6592 21.4353 23.6107 36.2541 23.6107 36.2541L28.5239 37.8736C28.5239 37.8736 33.5385 30.5019 35.2425 26.965C37.0226 23.2268 34.7436 20.0507 31.6654 20.7514Z" fill="black"/>
<path d="M29.378 37.1475C29.378 37.1475 24.5621 36.2371 23.4585 35.5574C23.0738 36.1112 22.6129 38.1167 22.9258 38.7083C23.2387 39.2998 27.7248 40.1515 28.3336 39.8033C28.9425 39.4551 29.378 37.1475 29.378 37.1475Z" fill="#263238"/>
<path opacity="0.6" d="M29.378 37.1475C29.378 37.1475 24.5621 36.2371 23.4585 35.5574C23.0738 36.1112 22.6129 38.1167 22.9258 38.7083C23.2387 39.2998 27.7248 40.1515 28.3336 39.8033C28.9425 39.4551 29.378 37.1475 29.378 37.1475Z" fill="#83FFA3"/>
<path opacity="0.3" d="M33.6146 26.0126C32.6971 26.9231 31.8641 29.5075 31.8388 32.7927C32.9001 31.1145 33.9952 29.3145 34.7605 27.8755C34.3968 26.579 33.9909 25.6518 33.6146 26.0126Z" fill="black"/>
<path d="M49.6437 20.915C49.6437 20.915 53.0601 24.7414 49.834 48.438H32.6717C32.5534 45.8242 34.2066 33.0696 31.6654 20.7472C33.5631 20.3835 35.4825 20.1425 37.4115 20.0255C39.8422 19.887 42.2788 19.887 44.7094 20.0255C46.375 20.1942 48.0248 20.4915 49.6437 20.915Z" fill="#83FFA3"/>
<path opacity="0.5" d="M49.6437 20.915C49.6437 20.915 53.0601 24.7414 49.834 48.438H32.6717C32.5534 45.8242 34.2066 33.0696 31.6654 20.7472C33.5631 20.3835 35.4825 20.1425 37.4115 20.0255C39.8422 19.887 42.2788 19.887 44.7094 20.0255C46.375 20.1942 48.0248 20.4915 49.6437 20.915Z" fill="black"/>
<path opacity="0.3" d="M47.0983 28.4836C47.4239 31.9408 49.6352 36.3294 50.9291 38.3181C51.0982 36.0357 51.187 34.047 51.2124 32.31L47.0983 28.4836Z" fill="black"/>
<path d="M45.3944 23.382C43.3268 27.2629 54.1213 39.8832 54.1213 39.8832L57.8929 36.0862C57.8929 36.0862 52.9966 27.5902 51.8466 23.8226C50.4259 19.1655 46.9672 20.4283 45.3944 23.382Z" fill="#83FFA3"/>
<path opacity="0.5" d="M45.3944 23.382C43.3268 27.2629 54.1213 39.8832 54.1213 39.8832L57.8929 36.0862C57.8929 36.0862 52.9966 27.5902 51.8466 23.8226C50.4259 19.1655 46.9672 20.4283 45.3944 23.382Z" fill="black"/>
<path d="M57.7407 35.3352C57.7407 35.3352 54.4681 38.956 53.318 39.5308C53.5971 40.1433 55.0811 41.5824 55.7619 41.6286C56.4426 41.6747 59.4869 38.2973 59.4996 37.6008C59.5123 36.9044 57.7407 35.3352 57.7407 35.3352Z" fill="#263238"/>
<path opacity="0.6" d="M57.7407 35.3352C57.7407 35.3352 54.4681 38.956 53.318 39.5308C53.5971 40.1433 55.0811 41.5824 55.7619 41.6286C56.4426 41.6747 59.4869 38.2973 59.4996 37.6008C59.5123 36.9044 57.7407 35.3352 57.7407 35.3352Z" fill="#83FFA3"/>
<path d="M71.0848 43.4745L74.1925 42.1445L75.1608 45.501C75.1608 45.501 72.7888 47.0408 70.8903 45.694L71.0848 43.4745Z" fill="#FFC3BD"/>
<path d="M77.6597 43.7348C77.5579 43.8021 77.4205 43.7759 77.351 43.676L73.9008 38.5994C73.8671 38.5512 73.8544 38.4915 73.8655 38.4339C73.8766 38.3762 73.9107 38.3255 73.96 38.2931C74.0086 38.2596 74.0687 38.247 74.1268 38.2581C74.1849 38.2691 74.236 38.3029 74.2687 38.3518L77.7189 43.4285C77.7526 43.4767 77.7653 43.5363 77.7542 43.594C77.743 43.6516 77.709 43.7024 77.6597 43.7348Z" fill="#263238"/>
<path d="M77.4694 42.3921L78.8351 44.3976L75.1608 45.4885L74.1925 42.1404L77.4694 42.3921Z" fill="#FFC3BD"/>
<path opacity="0.2" d="M44.9758 122.058L44.8151 125.859H41.6017L41.7666 122.058H44.9758Z" fill="black"/>
<path opacity="0.2" d="M21.0781 120.065L24.2154 120.736L22.5918 124.277L19.4544 123.602L21.0781 120.065Z" fill="black"/>
<path d="M39.5214 8.24851C38.921 11.3532 38.4094 13.1406 39.5595 15.1041C41.2888 18.041 45.4493 17.6214 46.9715 14.7643C48.3456 12.1882 49.0856 7.54785 46.3964 5.56334C45.1913 4.66847 43.605 4.45674 42.2044 5.00378C40.8038 5.55083 39.7885 6.77861 39.5214 8.24851Z" fill="#FFC3BD"/>
<path d="M38.2868 6.71274C40.5489 5.97852 44.8362 4.39678 46.3499 8.00918C47.8636 11.6216 41.6989 15.3934 40.1303 15.3976C38.8703 15.4102 35.8006 7.55186 38.2868 6.71274Z" fill="#263238"/>
<path d="M42.997 8.23585C47.4281 10.6483 51.4534 7.17856 49.6564 3.25569C47.8594 -0.667178 43.9314 -0.100774 45.1534 1.81241C46.3753 3.7256 42.997 0.82645 40.663 1.72011C39.0267 2.34525 41.1493 3.36478 41.348 4.1032C41.5467 4.84162 37.0648 4.8626 36.4687 5.97024C35.8725 7.07787 38.0246 9.38544 39.1282 9.02462C40.2317 8.6638 42.2148 7.80371 42.997 8.23585Z" fill="#263238"/>
<path d="M44.2781 10.0945C44.1319 10.8664 44.2479 11.6647 44.6079 12.3643C45.0857 13.2789 45.9144 13.0062 46.2738 12.1377C46.5994 11.3531 46.7389 9.93502 46.0201 9.30988C45.3013 8.68474 44.4642 9.16723 44.2781 10.0945Z" fill="#FFC3BD"/>
<path d="M43.7454 48.4379C43.7454 48.4379 40.1049 72.7723 38.105 81.8851C35.9148 91.8706 24.2111 123.87 24.2111 123.87L18.465 122.637C18.465 122.637 27.2301 92.6761 28.4774 82.7787C29.8346 72.0506 32.6717 48.4253 32.6717 48.4253L43.7454 48.4379Z" fill="#263238"/>
<path d="M25.5853 121.97C25.6107 121.97 24.5156 124.03 24.5156 124.03L18.0507 122.641L18.5961 120.715L25.5853 121.97Z" fill="#83FFA3"/>
<path opacity="0.3" d="M41.4452 57.106C37.217 57.9241 37.6779 73.5065 38.1853 81.5201C39.3988 75.856 41.1789 64.9559 42.3923 57.2193C42.0985 57.0769 41.7648 57.037 41.4452 57.106Z" fill="black"/>
<path d="M49.8255 48.438C49.8255 48.438 50.2483 72.2437 49.9185 81.9523C49.5634 92.0511 46.0201 125.121 46.0201 125.121H40.5742C40.5742 125.121 40.3713 92.6427 40.1303 82.7243C39.8681 71.9123 38.5532 48.438 38.5532 48.438L49.8255 48.438Z" fill="#263238"/>
<path d="M47.056 122.972C47.0814 122.972 46.7474 125.213 46.7474 125.213H40.1345L39.9569 123.216L47.056 122.972Z" fill="#83FFA3"/>
</svg>
