<svg width="115" height="143" viewBox="0 0 115 143" fill="none" xmlns="http://www.w3.org/2000/svg">
<rect x="0.279785" y="16.2974" width="89.1187" height="64.5148" rx="4.89" fill="#263238"/>
<rect x="43.5451" y="13.3757" width="2.59275" height="127.374" rx="1.17" fill="#263238"/>
<path d="M42.0622 138.171H47.6114C48.8115 138.171 49.7844 139.139 49.7844 140.332V140.597C49.7844 140.637 49.7682 140.676 49.7394 140.705C49.7105 140.734 49.6714 140.75 49.6305 140.75H40.043C39.958 140.75 39.8891 140.681 39.8891 140.597V140.332C39.8891 139.139 40.862 138.171 42.0622 138.171V138.171Z" fill="#263238"/>
<rect x="69.5518" y="14.6743" width="7.46114" height="0.463768" fill="#FF7171"/>
<rect x="62.8181" y="14.6743" width="2.28031" height="0.463768" fill="#FF7171"/>
<rect x="0.61087" y="16.2974" width="89.1187" height="64.5148" rx="4.89" fill="#FF7171"/>
<path opacity="0.7" d="M83.1779 18.6162C85.5086 18.6162 87.3979 20.5056 87.3979 22.8362V74.2733C87.3979 76.604 85.5086 78.4933 83.1779 78.4933H7.16249C4.83185 78.4933 2.94248 76.604 2.94248 74.2733V22.8362C2.94248 20.5056 4.83184 18.6162 7.16248 18.6162L83.1779 18.6162Z" fill="white"/>
<path opacity="0.2" d="M27.5129 47.7827C22.0754 47.2765 16.6154 47.0474 11.1544 47.0964C11.2057 39.7225 11.8679 31.7503 12.4508 23.908L28.4829 24.9329C27.8627 34.083 27.2471 43.261 27.5129 47.7827Z" fill="black"/>
<path d="M27.8207 47.4535C22.3834 46.9449 16.9233 46.7158 11.4622 46.7671C11.5135 39.3885 11.8539 31.7549 12.4368 23.908L28.7953 24.5943C28.1844 33.7445 27.5689 42.9271 27.8207 47.4535Z" fill="white"/>
<path opacity="0.2" d="M49.2901 63.4905L32.9363 64.2L32.2554 41.007L48.2922 40.6313L49.2901 63.4905Z" fill="black"/>
<path d="M32.252 41.0146L48.6091 40.3072L49.6085 63.1633L33.2514 63.8707L32.252 41.0146Z" fill="white"/>
<path opacity="0.2" d="M85.7518 62.9387L69.5192 60.81L72.9047 37.8535L88.7596 40.2558L85.7518 62.9387Z" fill="black"/>
<path d="M72.8977 37.8586L89.1294 39.9896L86.1189 62.6705L69.8871 60.5396L72.8977 37.8586Z" fill="white"/>
<path opacity="0.2" d="M29.9471 79.7085C26.9813 80.6361 19.343 80.7798 13.6259 80.4969C12.8098 73.3549 12.8938 65.3596 13.0989 57.3085L29.1357 57.0442C28.7813 62.5723 29.0565 72.4088 29.9471 79.7085Z" fill="black"/>
<path d="M30.2736 79.3745C27.3031 80.3021 19.6647 80.4412 13.9523 80.1583C13.1423 72.5655 12.8587 64.9261 13.1036 57.2945L29.4622 56.6917C29.1031 62.2383 29.3782 72.0748 30.2736 79.3745Z" fill="white"/>
<path opacity="0.2" d="M70.1673 45.4639L53.7995 45.821C53.2492 38.2059 53.4078 30.243 53.6176 22.6326H69.6637C69.4819 30.7253 69.6031 38.4471 70.1673 45.4639Z" fill="black"/>
<path d="M70.4891 45.1206L54.1212 45.4777C53.5741 37.8626 53.4093 30.2383 53.6269 22.6047L69.9948 22.2476C69.8176 30.3913 69.9482 38.1084 70.4891 45.1206Z" fill="white"/>
<path d="M76.1171 135.576L72.4865 134.61L73.7795 126.021L77.4101 126.987L76.1171 135.576Z" fill="#FF8B7B"/>
<path d="M109.702 138.84H105.94L103.012 130.209H106.774L109.702 138.84Z" fill="#FF8B7B"/>
<path d="M105.439 138.408H110.025C110.178 138.409 110.311 138.515 110.343 138.664L111.088 141.979C111.123 142.142 111.08 142.312 110.972 142.44C110.865 142.569 110.704 142.641 110.535 142.638C109.06 142.615 107.987 142.526 106.127 142.526C104.984 142.526 101.536 142.647 99.9622 142.647C98.3881 142.647 98.1773 141.101 98.8238 140.957C101.719 140.33 103.902 139.467 104.83 138.636C104.999 138.49 105.215 138.409 105.439 138.408V138.408Z" fill="#263238"/>
<path d="M72.627 134.202L76.5903 135.256C76.7387 135.296 76.8395 135.433 76.8339 135.585L76.684 138.975C76.6789 139.141 76.5967 139.295 76.4611 139.394C76.3256 139.492 76.1519 139.522 75.9906 139.476C74.5852 139.072 72.5193 138.436 70.7204 137.958C68.6169 137.401 66.7712 137.029 64.307 136.375C62.8173 135.98 62.8079 134.374 63.4685 134.406C66.476 134.545 68.8137 135.098 71.676 134.248C71.9824 134.145 72.3119 134.129 72.627 134.202Z" fill="#263238"/>
<path d="M92.0685 27.7132C90.827 29.2593 89.5387 30.9214 88.3207 32.5511C87.1027 34.1807 85.9315 35.8661 84.8541 37.5561C84.3153 38.3964 83.8234 39.2507 83.3503 40.1004L82.0573 42.6214L81.9495 42.8489C81.9495 42.8722 81.9214 42.8907 81.9168 42.8861C81.9104 42.8305 81.9104 42.7745 81.9168 42.7189C81.9163 42.5753 81.9006 42.4322 81.8699 42.2918C81.8534 42.2145 81.8315 42.1385 81.8043 42.0643C81.8043 42.0179 81.7715 41.9714 81.7528 41.925C81.7295 41.8596 81.7013 41.7959 81.6685 41.7347C81.5848 41.5788 81.4843 41.4325 81.3686 41.2982C81.2055 41.1149 81.0142 40.9582 80.8018 40.8339C80.5865 40.7105 80.3523 40.6226 80.1085 40.5739C79.9263 40.5405 79.7408 40.5281 79.5557 40.5368C79.3453 40.5466 79.138 40.5905 78.942 40.6668C78.8045 40.7138 78.675 40.7811 78.5578 40.8664C78.4407 40.9547 78.4454 40.9686 78.4407 40.9779C78.436 40.9872 78.4688 40.9779 78.4969 40.9779C78.6633 40.8656 78.82 40.7398 78.9654 40.6018C79.1434 40.4486 79.3214 40.2814 79.4995 40.105C80.2256 39.4132 80.9751 38.6518 81.7575 37.9414L84.1232 39.4643C83.7439 40.5087 83.2867 41.5236 82.7553 42.5007C82.466 43.0577 82.1241 43.5863 81.7341 44.0793C81.6619 44.1682 81.5853 44.2534 81.5045 44.3347C81.375 44.4692 81.2321 44.5905 81.0782 44.6968C80.9037 44.8169 80.7149 44.9151 80.516 44.9893C80.2874 45.0735 80.0474 45.1235 79.804 45.1379C79.6031 45.1473 79.4019 45.1333 79.2043 45.0961C78.9434 45.0455 78.6931 44.9513 78.4641 44.8175C78.2375 44.6864 78.0335 44.5203 77.8598 44.3254C77.7341 44.1827 77.6241 44.027 77.5319 43.8611C77.4991 43.7914 77.4616 43.7172 77.4335 43.6475L77.3726 43.485C77.3351 43.3643 77.3164 43.29 77.2977 43.2064C77.2554 43.0018 77.2366 42.7931 77.2414 42.5843C77.2442 42.3977 77.2599 42.2116 77.2883 42.0272C77.2883 41.8925 77.3258 41.7857 77.3445 41.6836C77.3867 41.4793 77.4241 41.3122 77.4616 41.1497C77.6162 40.5136 77.7802 39.9797 77.9676 39.4411C78.155 38.9025 78.3986 38.3639 78.6375 37.8486C79.1059 36.8086 79.6213 35.8057 80.1647 34.84C81.243 32.923 82.4221 31.0633 83.6969 29.2686C84.3247 28.3818 84.9712 27.5043 85.6364 26.6454C86.3016 25.7864 86.9762 24.9554 87.7211 24.0918L92.0685 27.7132Z" fill="#FF8B7B"/>
<path d="M94.111 24.9785C94.9168 28.4467 87.2292 37.3285 87.2292 37.3285L80.3333 32.3235C81.8642 29.4459 83.7017 26.7392 85.8144 24.2496C88.9719 20.7117 93.2256 21.1667 94.111 24.9785Z" fill="#FF7171"/>
<path opacity="0.2" d="M94.111 24.9785C94.9168 28.4467 87.2292 37.3285 87.2292 37.3285L80.3333 32.3235C81.8642 29.4459 83.7017 26.7392 85.8144 24.2496C88.9719 20.7117 93.2256 21.1667 94.111 24.9785Z" fill="black"/>
<path opacity="0.2" d="M73.7795 126.021L73.1096 130.45L76.7449 131.416L77.4101 126.987L73.7795 126.021Z" fill="black"/>
<path opacity="0.2" d="M106.774 130.214H103.012L104.525 134.661H108.287L106.774 130.214Z" fill="black"/>
<path d="M110.934 24.4586C106.038 38.35 105.949 53.3929 105.401 56.4107C102.478 56.0254 91.4688 54.5536 85.4677 53.7504C84.1186 32.4211 90.0306 21.8539 90.0306 21.8539C90.0306 21.8539 91.333 21.6821 93.0944 21.6079C93.6472 21.6079 94.2422 21.5707 94.8605 21.5754C95.2025 21.5754 95.5492 21.5754 95.9005 21.5986C98.7453 21.8213 101.575 22.2057 104.375 22.75C104.905 22.8475 105.443 22.9589 105.963 23.075C106.483 23.1911 106.9 23.3025 107.369 23.4186C109.378 23.9246 110.934 24.4586 110.934 24.4586Z" fill="#FF7171"/>
<path opacity="0.2" d="M110.934 24.4586C106.038 38.35 105.949 53.3929 105.401 56.4107C102.478 56.0254 91.4688 54.5536 85.4677 53.7504C84.1186 32.4211 90.0306 21.8539 90.0306 21.8539C90.0306 21.8539 91.333 21.6821 93.0944 21.6079C93.6472 21.6079 94.2422 21.5707 94.8605 21.5754C95.2025 21.5754 95.5492 21.5754 95.9005 21.5986C98.7453 21.8213 101.575 22.2057 104.375 22.75C104.905 22.8475 105.443 22.9589 105.963 23.075C106.483 23.1911 106.9 23.3025 107.369 23.4186C109.378 23.9246 110.934 24.4586 110.934 24.4586Z" fill="black"/>
<path opacity="0.2" d="M106.352 30.8564C105.56 32.9504 106.179 38.7493 107.045 40.7272C107.355 38.6564 107.734 36.4836 108.212 34.255L106.352 30.8564Z" fill="black"/>
<path d="M81.795 37.6722L84.7744 34.8865L86.7139 39.2415C85.612 40.3599 83.9059 40.6417 82.4977 39.9379L81.795 37.6722Z" fill="#FF8B7B"/>
<path d="M86.9622 33.4377L88.4519 37.2913L86.7139 39.2181L84.7744 34.8631L86.9622 33.4377Z" fill="#FF8B7B"/>
<path d="M104.82 13.1624C103.916 15.7949 102.712 20.6745 104.375 22.7313C102.693 23.9941 100.524 25.4195 97.2731 25.0991C94.022 24.7788 94.8886 22.6477 95.9005 21.5984C99.0393 21.2874 99.2641 19.0402 99.0205 16.8674L104.82 13.1624Z" fill="#FF8B7B"/>
<path d="M95.3243 20.8928C95.3243 20.1592 98.3694 19.5417 98.4865 20.2382C98.6036 20.9346 97.5496 21.1667 97.8822 22.0953C98.2148 23.0239 101.283 23.1167 102.511 21.8028C103.326 20.9253 103.583 20.0432 104.619 20.6235C105.654 21.2039 106.9 22.0164 106.216 23.2932C105.532 24.5699 101.672 27.5878 98.1586 26.8124C94.645 26.0371 93.6659 24.166 94.3499 23.3535C94.945 22.6654 95.2883 21.7984 95.3243 20.8928Z" fill="#FF7171"/>
<path opacity="0.2" d="M102.454 14.676L99.0205 16.8675C99.0871 17.3722 99.1075 17.8819 99.0814 18.3903C100.478 18.3332 101.753 17.5873 102.478 16.4032C102.871 15.6557 102.74 14.806 102.454 14.676Z" fill="black"/>
<path d="M105.387 8.51963C105.054 12.2061 105.045 14.3789 103.11 16.2221C100.201 19.0078 95.6523 17.1507 94.8699 13.4643C94.1672 10.1261 94.8324 4.64284 98.5146 3.29641C100.164 2.67372 102.021 2.94272 103.422 4.00717C104.822 5.07163 105.566 6.77944 105.387 8.51963Z" fill="#FF8B7B"/>
<path d="M105.673 5.57138C102.937 5.3671 102.707 10.075 104.97 12.0992C107.706 11.036 111.529 5.9846 105.673 5.57138Z" fill="#263238"/>
<path d="M102.965 6.30497C101.363 3.79783 98.2803 7.77211 96.7578 5.03283C95.8443 3.38461 94.2843 5.17211 93.3333 4.18319C92.3823 3.19426 93.8533 0.538544 94.8465 0.301758C94.289 0.900686 94.1812 3.04104 95.8537 1.98247C97.5261 0.923901 98.7254 -0.171814 100.773 1.6064C102.82 3.38461 104.961 -0.190385 106.839 2.53497C108.488 4.90283 104.862 9.28569 102.965 6.30497Z" fill="#263238"/>
<path d="M106.062 5.91489C105.622 5.91329 105.186 5.84277 104.769 5.70596C104.677 5.67776 104.625 5.5811 104.654 5.49007C104.682 5.39904 104.78 5.34811 104.872 5.37632C106.071 5.75239 107.237 5.55275 107.772 4.88418C108.188 4.36418 108.156 3.64918 107.692 2.87382C107.643 2.79177 107.67 2.68575 107.753 2.63704C107.836 2.58832 107.943 2.61534 107.992 2.69739C108.53 3.58882 108.549 4.46632 108.048 5.09775C107.547 5.65664 106.815 5.95765 106.062 5.91489Z" fill="#263238"/>
<path d="M106.952 12.6377C106.428 13.409 105.618 13.9445 104.698 14.1281C103.476 14.3556 102.97 13.2506 103.396 12.1595C103.78 11.1799 104.881 9.87988 106.066 10.1399C107.252 10.3999 107.584 11.6813 106.952 12.6377Z" fill="#FF8B7B"/>
<path d="M71.7697 129.127L77.916 130.761C77.916 130.761 83.7672 109.283 85.6176 97.797C86.1798 94.3103 87.4353 89.4817 88.9531 84.3328C90.8645 77.8328 93.1928 70.8313 95.0807 65.3481C97.0764 59.5724 98.5708 55.4913 98.5708 55.4913L85.4537 53.741C85.4537 53.741 75.4706 84.0728 74.3463 95.392C73.1892 107.171 71.7697 129.127 71.7697 129.127Z" fill="#263238"/>
<path opacity="0.2" d="M88.9531 84.3421C90.8645 77.8421 93.1928 70.8407 95.0807 65.3574L93.9189 62.3535C90.3913 65.9935 88.7376 77.8374 88.9531 84.3421Z" fill="black"/>
<path d="M92.5369 54.6975C92.5369 54.6975 91.8905 86.6264 92.7712 97.5093C93.7409 109.432 102.754 133.798 102.754 133.798H109.641C109.641 133.798 105.045 111.512 103.64 99.905C102.033 86.7193 105.401 56.4014 105.401 56.4014L92.5369 54.6975Z" fill="#263238"/>
<path d="M101.93 133.946H110.039V131.546L100.974 131.388L101.93 133.946Z" fill="#FF7171"/>
<path d="M70.9593 129.062L78.2861 131.012L78.9233 128.667L71.1748 126.481L70.9593 129.062Z" fill="#FF7171"/>
<path d="M99.7092 9.39705C99.7092 9.6942 99.5358 9.93563 99.3344 9.93098C99.133 9.92634 98.9831 9.67563 98.9924 9.37384C99.0018 9.07205 99.1704 8.83527 99.3672 8.83991C99.564 8.84455 99.7185 9.09527 99.7092 9.39705Z" fill="#263238"/>
<path d="M96.2847 9.28566C96.2847 9.58745 96.1067 9.82424 95.9099 9.81959C95.7132 9.81495 95.5586 9.56424 95.5632 9.26709C95.5679 8.96995 95.7413 8.72388 95.938 8.73316C96.1348 8.74245 96.2894 8.99781 96.2847 9.28566Z" fill="#263238"/>
<path d="M97.3669 9.48071C96.9806 10.3888 96.4681 11.239 95.8443 12.0064C96.2547 12.3175 96.7835 12.4315 97.2872 12.3175L97.3669 9.48071Z" fill="#FF5652"/>
<path d="M98.5427 13.1577C99.2268 13.1002 99.8562 12.7639 100.281 12.2292C100.313 12.1952 100.313 12.1424 100.281 12.1084C100.261 12.0944 100.236 12.0889 100.212 12.0933C100.189 12.0977 100.168 12.1115 100.154 12.1317C99.6628 12.7281 98.9103 13.0516 98.1351 12.9999C98.1107 12.9986 98.0869 13.0073 98.0691 13.024C98.0514 13.0407 98.0414 13.0639 98.0414 13.0881C98.0414 13.1351 98.0784 13.1738 98.1258 13.1763C98.265 13.1806 98.4044 13.1744 98.5427 13.1577Z" fill="#263238"/>
<path d="M100.796 8.32932C100.827 8.3263 100.856 8.31506 100.88 8.29682C100.919 8.26974 100.945 8.22859 100.953 8.18244C100.961 8.13629 100.95 8.08891 100.923 8.05074C100.6 7.57999 100.068 7.29286 99.4937 7.28003C99.4465 7.28243 99.4021 7.30336 99.3705 7.3382C99.3389 7.37305 99.3225 7.41894 99.3251 7.46574C99.3263 7.51215 99.3463 7.5561 99.3808 7.58758C99.4152 7.61907 99.461 7.63541 99.5078 7.63289C99.962 7.6479 100.381 7.87968 100.632 8.25503C100.67 8.30665 100.732 8.33486 100.796 8.32932Z" fill="#263238"/>
<path d="M94.8558 8.08776C94.9144 8.08238 94.9658 8.0472 94.9917 7.99491C95.1888 7.58756 95.573 7.30025 96.0223 7.22419C96.1098 7.20395 96.1684 7.12223 96.1589 7.03367C96.1493 6.9451 96.0747 6.87747 95.9848 6.87598C95.4173 6.96322 94.929 7.32057 94.6778 7.83241C94.655 7.87345 94.6501 7.92195 94.6643 7.96666C94.6784 8.01137 94.7104 8.0484 94.7528 8.06919C94.784 8.08672 94.8204 8.09327 94.8558 8.08776Z" fill="#263238"/>
<path fill-rule="evenodd" clip-rule="evenodd" d="M105.181 138.971C104.859 139.056 104.529 139.103 104.197 139.113C103.94 139.13 103.685 139.058 103.471 138.908C103.338 138.785 103.27 138.603 103.288 138.419C103.29 138.308 103.349 138.207 103.443 138.155C103.843 137.941 105 138.669 105.194 138.791C105.2 138.795 105.205 138.798 105.209 138.8C105.237 138.822 105.251 138.857 105.246 138.893C105.242 138.931 105.216 138.962 105.181 138.971ZM104.9 138.844C104.908 138.843 104.916 138.841 104.923 138.839V138.859C104.916 138.854 104.908 138.849 104.9 138.844ZM103.588 138.766C103.792 138.945 104.27 138.971 104.9 138.844C104.41 138.531 103.753 138.206 103.523 138.321C103.485 138.345 103.463 138.388 103.466 138.434C103.448 138.559 103.494 138.685 103.588 138.766Z" fill="#FF7171"/>
<path fill-rule="evenodd" clip-rule="evenodd" d="M105.214 138.928C105.197 138.933 105.179 138.933 105.162 138.928L105.12 138.933C104.731 138.724 103.982 137.907 104.061 137.489C104.088 137.356 104.206 137.261 104.342 137.261C104.479 137.241 104.618 137.282 104.722 137.373C105.157 137.726 105.251 138.803 105.251 138.849C105.256 138.881 105.241 138.912 105.214 138.928ZM104.605 137.508C104.549 137.456 104.475 137.428 104.399 137.429H104.361C104.23 137.443 104.23 137.498 104.23 137.521C104.183 137.744 104.661 138.38 105.05 138.673C105.025 138.249 104.869 137.842 104.605 137.508Z" fill="#FF7171"/>
<path fill-rule="evenodd" clip-rule="evenodd" d="M72.2101 134.55C72.197 134.58 72.1684 134.602 72.1351 134.606L72.1211 134.61C71.5027 134.568 70.4252 134.443 70.1207 133.979C70.029 133.841 70.0115 133.668 70.0739 133.515C70.1032 133.421 70.1794 133.349 70.2753 133.324C70.7813 133.199 72.0461 134.322 72.1867 134.452C72.2142 134.477 72.2235 134.516 72.2101 134.55ZM71.8681 134.42C71.3622 133.979 70.6548 133.491 70.355 133.491L70.3175 133.51C70.2793 133.52 70.2502 133.55 70.2425 133.589C70.1994 133.688 70.21 133.801 70.2706 133.891C70.4393 134.146 71.0296 134.336 71.8681 134.42Z" fill="#FF7171"/>
<path fill-rule="evenodd" clip-rule="evenodd" d="M72.1586 134.606H72.1351C72.1124 134.608 72.0895 134.603 72.0696 134.592C71.6714 134.276 71.0249 133.273 71.2029 132.883C71.2451 132.79 71.3434 132.693 71.587 132.73C71.7658 132.757 71.9253 132.856 72.0274 133.004C72.3519 133.451 72.2442 134.304 72.2193 134.501C72.2165 134.523 72.2148 134.537 72.2148 134.541C72.2086 134.571 72.1874 134.595 72.1586 134.606ZM71.5589 132.888H71.4652C71.3988 132.892 71.3766 132.922 71.3691 132.932C71.3681 132.933 71.3674 132.934 71.3669 132.934C71.2591 133.176 71.6854 133.942 72.0602 134.327C72.1282 133.907 72.0662 133.477 71.8822 133.092C71.8088 132.981 71.6911 132.907 71.5589 132.888Z" fill="#FF7171"/>
<path d="M111.913 27.3372C112.456 29.7561 112.915 32.1611 113.318 34.5939C113.721 37.0268 114.082 39.4643 114.363 41.9343L114.461 42.8629L114.517 43.4386C114.56 43.8895 114.519 44.3443 114.396 44.7804C114.229 45.3865 113.893 45.9337 113.426 46.3589C113.036 46.7064 112.571 46.9619 112.067 47.1064C111.481 47.2701 110.869 47.319 110.264 47.2504C109.478 47.1647 108.705 46.9903 107.959 46.7304C107.289 46.5029 106.671 46.2661 106.085 45.9829C104.909 45.4507 103.763 44.8572 102.651 44.2047C101.55 43.5593 100.496 42.8954 99.4468 42.1386L100.782 39.6732C103.054 40.4532 105.368 41.2889 107.589 41.8925C108.142 42.0457 108.69 42.1757 109.21 42.2686C109.645 42.367 110.09 42.4137 110.535 42.4079C110.671 42.4079 110.779 42.3475 110.564 42.3847C110.354 42.4383 110.161 42.5456 110.006 42.6957C109.763 42.9094 109.585 43.1859 109.491 43.4943C109.451 43.6352 109.428 43.78 109.421 43.9261C109.421 44.005 109.421 43.8797 109.397 43.8147L109.355 43.5918L109.186 42.7097C108.727 40.3511 108.259 37.9848 107.781 35.6107C107.312 33.2382 106.816 30.8518 106.375 28.4886L111.913 27.3372Z" fill="#FF8B7B"/>
<path d="M112.189 25.3733C114.644 27.9779 114.864 35.9776 114.864 35.9776L107.757 39.2972C107.757 39.2972 105.453 34.2133 105.378 29.6122C105.303 24.3936 109.73 22.7501 112.189 25.3733Z" fill="#FF7171"/>
<path opacity="0.2" d="M112.189 25.3733C114.644 27.9779 114.864 35.9776 114.864 35.9776L107.757 39.2972C107.757 39.2972 105.453 34.2133 105.378 29.6122C105.303 24.3936 109.73 22.7501 112.189 25.3733Z" fill="black"/>
<path d="M86.7139 35.0954C86.6732 35.095 86.6331 35.0855 86.5967 35.0675C86.4855 35.0012 86.448 34.8589 86.5124 34.7472L90.2602 28.3354C90.3308 28.2391 90.4635 28.2114 90.5673 28.2712C90.6712 28.3311 90.7125 28.459 90.6631 28.5675L86.9387 34.9793C86.8924 35.0575 86.8051 35.1025 86.7139 35.0954Z" fill="#263238"/>
<path d="M98.3413 52.9285L84.1795 50.8857C83.5818 50.7956 83.1213 50.3163 83.0598 49.7203L82.1229 30.3457C82.1088 30.0838 82.2197 29.8305 82.4222 29.6617C82.6248 29.4929 82.8956 29.4281 83.1535 29.4868L97.3153 31.525C97.9131 31.6196 98.3734 32.0986 98.4397 32.695L99.3532 52.0696C99.3657 52.3275 99.2573 52.5767 99.0594 52.7446C98.8616 52.9126 98.5965 52.9805 98.3413 52.9285Z" fill="white"/>
<path d="M98.0227 53.1236L83.8609 51.0714C83.2622 50.9818 82.8001 50.5028 82.7366 49.9061L81.8231 30.5314C81.8074 30.2699 81.9171 30.0164 82.119 29.8473C82.3209 29.6783 82.5915 29.6135 82.849 29.6725L97.0108 31.7107C97.611 31.8008 98.0736 32.2822 98.1351 32.8807L99.0721 52.2507C99.0948 52.5197 98.9842 52.7829 98.7755 52.9565C98.5669 53.1301 98.2861 53.1924 98.0227 53.1236Z" fill="#263238"/>
<path d="M101.054 39.7429L97.7229 37.8857L97.334 42.6307C97.334 42.6307 100.52 43.5872 101.218 41.9668L101.054 39.7429Z" fill="#FF8B7B"/>
<path d="M94.0126 38.7354L94.4811 42.2825L97.334 42.6354L97.7229 37.8904L94.0126 38.7354Z" fill="#FF8B7B"/>
</svg>
