<svg width="146" height="135" viewBox="0 0 146 135" fill="none" xmlns="http://www.w3.org/2000/svg">
<rect x="0.218361" y="61.8191" width="145.465" height="5.2299" fill="#407BFF"/>
<rect opacity="0.3" x="0.218361" y="61.8191" width="38.9319" height="5.2299" fill="white"/>
<path d="M39.7711 67.0491H36.3844L38.157 132.597H39.7711H41.3852L43.1621 67.0491H39.7711Z" fill="#407BFF"/>
<path opacity="0.3" d="M38.157 132.597H39.7711V68.4563L36.4401 69.0655L38.157 132.597Z" fill="white"/>
<path d="M7.67249 67.0491H4.28581L6.05836 132.597H7.67249H9.28663L11.0592 67.0491H7.67249Z" fill="#407BFF"/>
<path opacity="0.3" d="M6.05836 132.597H7.6725V68.4563L4.33719 69.0655L6.05836 132.597Z" fill="white"/>
<path d="M138.229 67.0491H134.842L136.615 132.597H138.229H139.843L141.62 67.0491H138.229Z" fill="#407BFF"/>
<path opacity="0.3" d="M136.615 132.597H138.229V68.4563L134.898 69.0655L136.615 132.597Z" fill="white"/>
<path d="M106.13 67.0491H102.744L104.516 132.597H106.13H107.745L109.517 67.0491H106.13Z" fill="#407BFF"/>
<path opacity="0.3" d="M104.516 132.597H106.13V68.4563L102.799 69.0655L104.516 132.597Z" fill="white"/>
<path d="M69.2665 33.8205H34.6804C34.111 33.7979 33.5653 34.0496 33.2122 34.4977C32.859 34.9457 32.7411 35.536 32.895 36.0858L37.5019 58.1166C37.8065 59.3969 38.9213 60.3196 40.2335 60.3776H74.8453C75.4137 60.3997 75.9584 60.1486 76.3113 59.7016C76.6642 59.2547 76.7829 58.6657 76.6307 58.1166L72.0195 36.0858C71.7144 34.7964 70.588 33.8696 69.2665 33.8205Z" fill="#263238"/>
<path d="M40.5332 59.1205C39.6482 59.0606 38.9019 58.4374 38.6836 57.5759L34.0767 35.5451C33.9968 35.2498 34.0551 34.9342 34.2351 34.6871C34.4218 34.4755 34.6943 34.3603 34.9758 34.3739H69.5876C70.4726 34.4337 71.2189 35.0569 71.4372 35.9184L76.0442 57.9492C76.124 58.2445 76.0657 58.5601 75.8858 58.8073C75.7002 59.0204 75.4269 59.136 75.1451 59.1205H40.5332Z" fill="white"/>
<path opacity="0.4" d="M66.6462 57.3571L62.2791 36.4675C62.2294 36.2171 62.2935 35.9576 62.4541 35.7594C62.6146 35.5612 62.8549 35.4449 63.1097 35.4421H68.727C69.1282 35.4452 69.4734 35.727 69.5577 36.12L73.9248 56.9924C73.9745 57.2428 73.9104 57.5024 73.7498 57.7006C73.5892 57.8988 73.3489 58.0151 73.0942 58.0178H67.4768C67.0808 58.0166 66.7373 57.7433 66.6462 57.3571Z" fill="#407BFF"/>
<path d="M36.9581 37.27L36.7697 36.3647H43.7058L43.8942 37.27H36.9581Z" fill="#407BFF"/>
<path d="M40.1607 39.5181L39.9723 38.6128H52.1276L52.3202 39.5181H40.1607Z" fill="#EBEBEB"/>
<path d="M40.8029 41.7619L40.6103 40.8567H54.2384L54.4267 41.7619H40.8029Z" fill="#EBEBEB"/>
<path d="M41.4409 44.01L41.2525 43.1047H52.2218L52.4144 44.01H41.4409Z" fill="#EBEBEB"/>
<path d="M39.0689 47.6526L38.8763 46.7473H43.2648L43.4532 47.6526H39.0689Z" fill="#407BFF"/>
<path d="M42.2672 49.8965L42.0788 48.9912H47.4222L47.6148 49.8965H42.2672Z" fill="#EBEBEB"/>
<path d="M48.895 49.8965L48.7024 48.9912H54.05L54.2384 49.8965H48.895Z" fill="#EBEBEB"/>
<path d="M42.9094 52.1445L42.7211 51.2393H60.7891L60.9775 52.1445H42.9094Z" fill="#EBEBEB"/>
<path d="M43.5474 54.3884L43.359 53.4832H57.137L57.3253 54.3884H43.5474Z" fill="#EBEBEB"/>
<path d="M85.425 60.2446H39.8867C38.645 60.2446 37.8401 60.9525 38.1013 61.8192H88.1566C87.8997 60.9525 86.6666 60.2446 85.425 60.2446Z" fill="#263238"/>
<path opacity="0.1" d="M24.9228 28.2516L20.5513 7.37486C20.5031 7.12512 20.5679 6.8668 20.7283 6.66962C20.8887 6.47245 21.1281 6.35675 21.3819 6.35376H56.7473C57.1472 6.35641 57.492 6.63602 57.578 7.02734L61.9494 27.8869C61.9991 28.1373 61.9349 28.3968 61.7744 28.595C61.6138 28.7932 61.3735 28.9095 61.1188 28.9123H25.7534C25.3573 28.911 25.0138 28.6378 24.9228 28.2516Z" fill="#407BFF"/>
<path d="M37.4933 7.04033H30.0692L29.9022 6.23804H37.3263L37.4933 7.04033Z" fill="#407BFF"/>
<path opacity="0.4" d="M36.2859 8.31889H33.306L33.139 7.5166H36.1189L36.2859 8.31889Z" fill="#407BFF"/>
<path opacity="0.4" d="M41.2439 8.31889H36.6541L36.4872 7.5166H41.077L41.2439 8.31889Z" fill="#407BFF"/>
<path opacity="0.4" d="M43.2434 9.59306H33.5714L33.4045 8.79077H43.0807L43.2434 9.59306Z" fill="#407BFF"/>
<path opacity="0.4" d="M42.0146 10.8716H33.8369L33.6699 10.0693H41.8476L42.0146 10.8716Z" fill="#407BFF"/>
<path opacity="0.4" d="M47.4393 24.4333H42.233L42.3999 25.2313H47.6063L47.4393 24.4333Z" fill="#407BFF"/>
<path d="M40.9485 22.6829H33.3231L33.1561 21.8806H40.7815L40.9485 22.6829Z" fill="#407BFF"/>
<path opacity="0.4" d="M44.0141 25.7075H36.9239L37.0909 26.5098H44.1811L44.0141 25.7075Z" fill="#407BFF"/>
<path opacity="0.4" d="M41.8648 24.4333H36.6584L36.8254 25.2313H42.0317L41.8648 24.4333Z" fill="#407BFF"/>
<path opacity="0.4" d="M46.8056 23.1548H36.393L36.5599 23.9571H46.9726L46.8056 23.1548Z" fill="#407BFF"/>
<path d="M37.2321 1.08535H28.8318L28.6648 0.287354H37.0652L37.2321 1.08535Z" fill="#407BFF"/>
<path opacity="0.4" d="M41.3809 4.11426H32.1157L32.2827 4.91655H41.5436L41.3809 4.11426Z" fill="#407BFF"/>
<path opacity="0.4" d="M39.527 2.84009H31.8503L32.0172 3.63809H39.694L39.527 2.84009Z" fill="#407BFF"/>
<path opacity="0.4" d="M40.0365 1.56152H31.5848L31.7518 2.36381H40.2035L40.0365 1.56152Z" fill="#407BFF"/>
<path d="M37.138 12.948H31.298L31.131 12.1458H36.971L37.138 12.948Z" fill="#407BFF"/>
<path opacity="0.4" d="M46.309 15.9727H34.8987L35.0657 16.7749H46.4717L46.309 15.9727Z" fill="#407BFF"/>
<path opacity="0.4" d="M39.3601 14.6985H34.6333L34.8002 15.5008H39.527L39.3601 14.6985Z" fill="#407BFF"/>
<path opacity="0.4" d="M44.4893 14.6985H39.7625L39.9295 15.5008H44.6563L44.4893 14.6985Z" fill="#407BFF"/>
<path opacity="0.4" d="M44.7805 13.4199H34.3678L34.5348 14.2222H44.9432L44.7805 13.4199Z" fill="#407BFF"/>
<path opacity="0.4" d="M44.7591 19.804H35.6951L35.8621 20.602H44.926L44.7591 19.804Z" fill="#407BFF"/>
<path opacity="0.4" d="M38.067 18.5256H35.4296L35.5966 19.3279H38.2297L38.067 18.5256Z" fill="#407BFF"/>
<path opacity="0.4" d="M42.1901 18.5256H38.4267L38.5937 19.3279H42.3571L42.1901 18.5256Z" fill="#407BFF"/>
<path opacity="0.4" d="M45.5768 17.2512H35.1642L35.3311 18.0492H45.7438L45.5768 17.2512Z" fill="#407BFF"/>
<path opacity="0.4" d="M53.776 17.0367H50.0467L49.8798 16.2344H53.6133L53.776 17.0367Z" fill="#407BFF"/>
<path opacity="0.4" d="M59.9842 17.0367H54.2384L54.0714 16.2344H59.8172L59.9842 17.0367Z" fill="#407BFF"/>
<path opacity="0.4" d="M62.4246 18.3152H50.3122L50.1452 17.5129H62.2577L62.4246 18.3152Z" fill="#407BFF"/>
<path opacity="0.4" d="M60.8148 19.5894H50.5777L50.4107 18.7871H60.6478L60.8148 19.5894Z" fill="#407BFF"/>
<path opacity="0.4" d="M65.4003 11.9614H53.8016L53.9686 12.7594H65.5673L65.4003 11.9614Z" fill="#407BFF"/>
<path opacity="0.4" d="M63.1482 10.6829H53.5362L53.7032 11.4852H63.3109L63.1482 10.6829Z" fill="#407BFF"/>
<path d="M61.4099 9.40869H50.826L50.993 10.2067H61.5769L61.4099 9.40869Z" fill="#407BFF"/>
<path opacity="0.4" d="M65.9226 24.6951H51.6395L51.8065 25.4974H66.0896L65.9226 24.6951Z" fill="#407BFF"/>
<path opacity="0.4" d="M57.2911 23.4207H51.374L51.541 24.2187H57.4581L57.2911 23.4207Z" fill="#407BFF"/>
<path opacity="0.4" d="M63.7134 23.4207H57.7963L57.9633 24.2187H63.8804L63.7134 23.4207Z" fill="#407BFF"/>
<path opacity="0.4" d="M64.1415 22.1423H51.1086L51.2755 22.9446H64.3085L64.1415 22.1423Z" fill="#407BFF"/>
<path opacity="0.4" d="M63.7819 28.522H52.4358L52.6028 29.3243H63.9489L63.7819 28.522Z" fill="#407BFF"/>
<path opacity="0.4" d="M55.4714 27.2478H52.1704L52.3374 28.0501H55.6384L55.4714 27.2478Z" fill="#407BFF"/>
<path opacity="0.4" d="M60.635 27.2478H55.9253L56.0923 28.0501H60.8019L60.635 27.2478Z" fill="#407BFF"/>
<path opacity="0.4" d="M64.9422 25.9692H51.9049L52.0719 26.7715H65.1049L64.9422 25.9692Z" fill="#407BFF"/>
<path opacity="0.4" d="M30.2276 29.5129H21.3477L21.5147 30.3152H30.3945L30.2276 29.5129Z" fill="#407BFF"/>
<path opacity="0.4" d="M27.603 28.2388H21.0822L21.2492 29.0368H27.7657L27.603 28.2388Z" fill="#407BFF"/>
<path opacity="0.4" d="M34.5776 28.2388H28.0611L28.2281 29.0368H34.7489L34.5776 28.2388Z" fill="#407BFF"/>
<path opacity="0.4" d="M33.854 26.9602H20.8168L20.9838 27.7625H34.0167L33.854 26.9602Z" fill="#407BFF"/>
<path d="M133.562 53.4832H128.065L128.707 61.8193H132.92L133.562 53.4832Z" fill="#407BFF"/>
<path opacity="0.4" d="M133.562 53.4832H128.065L128.707 61.8193H132.92L133.562 53.4832Z" fill="white"/>
<path d="M13.7565 47.6953H21.6602L18.9629 61.8191H11.0592L13.7565 47.6953Z" fill="#263238"/>
<path d="M23.8224 43.9114H12.6605L15.786 61.8192H26.9479L23.8224 43.9114Z" fill="#407BFF"/>
<path d="M12.0011 43.9114H12.6605L15.786 61.8192H15.1266L12.0011 43.9114Z" fill="#407BFF"/>
<path opacity="0.3" d="M12.0011 43.9114H12.6605L15.786 61.8192H15.1266L12.0011 43.9114Z" fill="black"/>
<path d="M17.3916 59.9015L14.934 45.825H22.2211L24.6744 59.9015H17.3916Z" fill="white"/>
<path opacity="0.6" d="M24.3276 59.9015L21.8743 45.825H22.2211L24.6744 59.9015H24.3276Z" fill="#407BFF"/>
<path d="M79.4729 21.3457C79.6314 21.6901 79.58 22.056 79.3529 22.1593C79.1257 22.2626 78.8171 22.0689 78.6586 21.7288C78.5 21.3887 78.5557 21.0185 78.7786 20.9152C79.0014 20.8118 79.3143 20.984 79.4729 21.3457Z" fill="#263238"/>
<path d="M79.61 22.0259C79.61 22.0259 79.7471 24.3765 79.3271 25.7369C80.1843 26.0253 81.11 25.3064 81.11 25.3064L79.61 22.0259Z" fill="#FF5652"/>
<path d="M79.5157 18.5002C79.4793 18.5304 79.4343 18.5485 79.3871 18.5518C78.8214 18.5669 78.297 18.8534 77.9771 19.3224C77.9388 19.3946 77.8644 19.4399 77.783 19.4408C77.7016 19.4417 77.6262 19.3979 77.5863 19.3267C77.5464 19.2554 77.5484 19.168 77.5914 19.0986C77.9854 18.4978 78.6456 18.1268 79.3614 18.1041C79.4575 18.0988 79.5462 18.156 79.5813 18.2461C79.6163 18.3361 79.5899 18.4386 79.5157 18.5002Z" fill="#263238"/>
<path d="M92.0943 20.812C93.4186 25.4185 94.8971 28.9917 96.7014 31.0323C96.7014 31.0323 96.7357 34.6529 90.5943 36.3749C83.84 38.2691 86.4286 33.9124 86.4286 33.9124C89.8571 31.9966 89.5314 29.1036 86.9514 28.0015L92.0943 20.812Z" fill="#FF8B7B"/>
<path d="M98.1329 30.1496C98.0129 28.4663 97.8543 26.5462 96.8214 26.4946C95.6814 26.4429 89.0814 29.4048 87.6714 31.4928C86.2614 33.5807 89.0171 35.6256 89.0171 35.6256L98.1329 30.1496Z" fill="#263238"/>
<path d="M84.6243 56.217L78.9243 56.0276L79.0271 60.8235C79.0271 60.8235 83.9986 60.3068 84.2171 58.9938L84.6243 56.217Z" fill="#FF8B7B"/>
<path d="M75.9114 58.3823L75.3114 60.8362L79.0271 60.8276L78.9243 56.0317L75.9114 58.3823Z" fill="#FF8B7B"/>
<path d="M107.501 36.2887L107.381 37.52C107.343 37.9161 107.291 38.3035 107.24 38.6953C107.141 39.4745 107.017 40.2537 106.884 41.0286C106.627 42.5828 106.293 44.1283 105.907 45.6824C105.515 47.2664 105.04 48.8284 104.484 50.3621C104.189 51.1499 103.88 51.9377 103.511 52.7385C103.14 53.5784 102.71 54.3912 102.226 55.1708C102.11 55.3732 101.964 55.6014 101.823 55.7908C101.681 55.9802 101.544 56.2213 101.394 56.4193C101.244 56.6174 101.086 56.8498 100.889 57.0522L100.61 57.3707C100.51 57.4883 100.404 57.6004 100.293 57.7065C99.4338 58.5516 98.427 59.2303 97.3229 59.7084C95.6289 60.4383 93.8312 60.8959 91.9957 61.0645C91.16 61.1635 90.3329 61.2023 89.5229 61.2238C88.7129 61.2453 87.9029 61.2238 87.1057 61.1807C86.3086 61.1377 85.52 61.0688 84.7357 60.9741C83.9514 60.8794 83.1886 60.7545 82.3571 60.5866L82.4943 56.0878C85.2308 55.6071 87.9358 54.9602 90.5943 54.1505C91.1856 53.9574 91.7664 53.7333 92.3343 53.4789C92.8178 53.274 93.2801 53.0216 93.7143 52.7256C93.9668 52.5727 94.1809 52.3636 94.34 52.1142L94.4643 51.9162C94.5219 51.8316 94.5748 51.744 94.6229 51.6536C94.684 51.5548 94.7398 51.4527 94.79 51.3479C94.8457 51.236 94.9057 51.1327 94.9614 51.0078C95.4649 49.9036 95.8791 48.7605 96.2 47.5896C96.5514 46.3239 96.8814 45.0065 97.1471 43.6418C97.4129 42.2771 97.67 40.8995 97.9057 39.5089L98.2314 37.4167L98.5271 35.3804L107.501 36.2887Z" fill="#407BFF"/>
<path opacity="0.2" d="M107.501 36.2887L107.381 37.52C107.343 37.9161 107.291 38.3035 107.24 38.6953C107.141 39.4745 107.017 40.2537 106.884 41.0286C106.627 42.5828 106.293 44.1283 105.907 45.6824C105.515 47.2664 105.04 48.8284 104.484 50.3621C104.189 51.1499 103.88 51.9377 103.511 52.7385C103.14 53.5784 102.71 54.3912 102.226 55.1708C102.11 55.3732 101.964 55.6014 101.823 55.7908C101.681 55.9802 101.544 56.2213 101.394 56.4193C101.244 56.6174 101.086 56.8498 100.889 57.0522L100.61 57.3707C100.51 57.4883 100.404 57.6004 100.293 57.7065C99.4338 58.5516 98.427 59.2303 97.3229 59.7084C95.6289 60.4383 93.8312 60.8959 91.9957 61.0645C91.16 61.1635 90.3329 61.2023 89.5229 61.2238C88.7129 61.2453 87.9029 61.2238 87.1057 61.1807C86.3086 61.1377 85.52 61.0688 84.7357 60.9741C83.9514 60.8794 83.1886 60.7545 82.3571 60.5866L82.4943 56.0878C85.2308 55.6071 87.9358 54.9602 90.5943 54.1505C91.1856 53.9574 91.7664 53.7333 92.3343 53.4789C92.8178 53.274 93.2801 53.0216 93.7143 52.7256C93.9668 52.5727 94.1809 52.3636 94.34 52.1142L94.4643 51.9162C94.5219 51.8316 94.5748 51.744 94.6229 51.6536C94.684 51.5548 94.7398 51.4527 94.79 51.3479C94.8457 51.236 94.9057 51.1327 94.9614 51.0078C95.4649 49.9036 95.8791 48.7605 96.2 47.5896C96.5514 46.3239 96.8814 45.0065 97.1471 43.6418C97.4129 42.2771 97.67 40.8995 97.9057 39.5089L98.2314 37.4167L98.5271 35.3804L107.501 36.2887Z" fill="black"/>
<path d="M82.1943 42.0101C84.3194 51.2136 85.5154 60.6089 85.7643 70.0534H110.857C110.994 66.9408 110.471 49.389 107.947 36.7105C107.494 34.3906 106.13 32.352 104.162 31.0556C102.194 29.7593 99.7885 29.3147 97.49 29.8224L97.37 29.8525C94.2371 30.5672 89.7414 31.7209 87.0843 32.7326L86.9771 32.7757C83.3013 34.2113 81.2549 38.1623 82.1943 42.0101Z" fill="#407BFF"/>
<path opacity="0.2" d="M83.8271 50.0608C84.0243 51.2705 84.2257 52.5534 84.41 53.8966C86.4629 51.7441 87.1143 45.1487 87.1143 45.1487L83.8271 50.0608Z" fill="black"/>
<path d="M62.9814 56.5311L57.2857 55.9973L57.0971 60.7889C59.0158 61.3209 61.0698 60.7387 62.4286 59.2778L62.9814 56.5311Z" fill="#FF8B7B"/>
<path d="M54.5771 57.4094L52.7514 60.7028L57.1143 60.7889L57.3029 55.9973L54.5771 57.4094Z" fill="#FF8B7B"/>
<path d="M91.61 39.8017C91.2157 40.5551 90.8643 41.2223 90.47 41.9112C90.0757 42.6 89.6986 43.2716 89.2914 43.9389C88.4857 45.282 87.65 46.5994 86.7671 47.9038C84.9946 50.5751 83.0309 53.1132 80.8914 55.498C79.7457 56.7819 78.5004 57.9724 77.1671 59.0583C77 59.2004 76.8029 59.3381 76.6186 59.4888C76.4343 59.6395 76.2714 59.76 75.9971 59.9193C75.7229 60.0786 75.4914 60.2379 75.2429 60.3757C74.9943 60.5134 74.7371 60.6383 74.4843 60.7502C73.5389 61.1625 72.5496 61.4644 71.5357 61.65C69.7623 61.9503 67.955 61.9909 66.17 61.7705C65.334 61.6743 64.5041 61.5305 63.6843 61.34C63.2757 61.2453 62.8729 61.1377 62.4757 61.0171C62.0471 60.8966 61.7 60.7631 61.2414 60.5866L61.9486 56.1438C64.64 55.7778 67.55 55.3086 69.5557 54.3959C70.001 54.2121 70.4203 53.9704 70.8029 53.677C70.9569 53.5705 71.1004 53.4494 71.2314 53.3153C71.2614 53.2766 71.3943 53.1603 71.4929 53.0656C71.5914 52.9709 71.7071 52.8805 71.8143 52.7686C72.7316 51.8554 73.5905 50.8849 74.3857 49.8626C76.1111 47.6267 77.7231 45.3047 79.2157 42.9056C79.9871 41.6873 80.7371 40.4474 81.4871 39.2033L82.5929 37.3349L83.66 35.4966L91.61 39.8017Z" fill="#407BFF"/>
<path d="M84.7229 129.662H80.0343L77.6729 118.748H82.3657L84.7229 129.662Z" fill="#FF8B7B"/>
<path d="M79.7729 128.654H85.0443C85.2324 128.661 85.394 128.79 85.4429 128.973L86.3686 133.166C86.4133 133.372 86.3613 133.588 86.2276 133.751C86.0938 133.914 85.893 134.006 85.6829 134.001C83.8443 133.971 82.9486 133.863 80.63 133.863C79.2029 133.863 77.3729 134.01 75.4057 134.01C73.4386 134.01 73.1771 132.055 73.9829 131.879C77.6 131.082 77.84 129.989 79.01 128.943C79.2198 128.755 79.4917 128.652 79.7729 128.654Z" fill="#263238"/>
<g opacity="0.2">
<path d="M82.37 118.753H77.6729L78.9843 124.797L83.5871 124.379L82.37 118.753Z" fill="black"/>
</g>
<path d="M90.59 15.2756C92.3043 19.6323 93.4957 22.0992 92.3643 25.2634C90.65 30.0205 84.5686 30.5027 81.6114 26.74C78.9543 23.3519 76.6314 16.7953 79.9871 13.1919C81.4813 11.5677 83.7067 10.8372 85.8674 11.2618C88.028 11.6864 89.8153 13.2054 90.59 15.2756Z" fill="#FF8B7B"/>
<path d="M82.3529 21.8021C81.65 22.7492 81.11 23.4682 81.11 23.4682C81.11 23.4682 79.6657 19.8648 80.2186 18.2116C79.5157 16.8125 78.0971 18.8746 77.5614 16.1495C77.0257 13.4244 79.3443 10.4969 80.2186 9.88992C80.3087 10.2075 80.3492 10.5371 80.3386 10.8672C82.701 8.94133 85.7035 7.9888 88.7386 8.20233C88.4849 8.5813 88.3234 9.01485 88.2671 9.46802C88.2671 9.46802 93.3543 10.329 94.5114 13.2221C94.1022 13.0258 93.6703 12.8812 93.2257 12.7915C94.1583 14.1347 94.5277 15.7923 94.2543 17.4066C93.8852 19.7608 93.6932 22.1397 93.68 24.5229C93.7271 25.7455 90.3886 28.0832 88.3529 25.5863C86.3171 23.0893 82.3529 21.8021 82.3529 21.8021Z" fill="#263238"/>
<path d="M84.4743 20.8636C84.7398 21.8784 84.6645 22.9528 84.26 23.9202C83.7157 25.2117 82.5971 24.9017 82.0443 23.7738C81.5429 22.7621 81.2214 20.8851 82.1086 19.9853C82.9957 19.0856 84.14 19.6452 84.4743 20.8636Z" fill="#FF8B7B"/>
<path d="M93.2857 70.0364C93.2857 70.0364 71.4971 77.975 70.8586 88.4751C69.6757 107.818 77.5486 123.131 77.5486 123.131L84.7657 122.356C84.7657 122.356 83.48 116.131 82.5243 98.6092C81.32 76.5887 118.524 99.1258 110.861 70.0364H93.2857Z" fill="#407BFF"/>
<path opacity="0.5" d="M93.2857 70.0364C93.2857 70.0364 71.4971 77.975 70.8586 88.4751C69.6757 107.818 77.5486 123.131 77.5486 123.131L84.7657 122.356C84.7657 122.356 83.48 116.131 82.5243 98.6092C81.32 76.5887 118.524 99.1258 110.861 70.0364H93.2857Z" fill="white"/>
<path d="M75.5514 120.462C75.5171 120.462 76.7 123.682 76.7 123.682L85.7 122.795L85.25 119.868L75.5514 120.462Z" fill="#407BFF"/>
<path d="M64.4557 130.2H59.7629L58.3914 119.282H63.0843L64.4557 130.2Z" fill="#FF8B7B"/>
<path d="M59.7286 128.65H64.8714C65.0627 128.648 65.2293 128.781 65.27 128.969L66.2043 133.157C66.2596 133.365 66.2143 133.587 66.082 133.757C65.9496 133.926 65.7457 134.023 65.5314 134.018C63.6843 133.988 61.01 133.885 58.6743 133.889C55.9571 133.889 55.4386 134.04 52.2457 134.044C50.3171 134.044 49.7814 132.094 50.5871 131.892C54.2557 131.082 55.43 130.992 58.5971 129.024C58.9315 128.795 59.3238 128.665 59.7286 128.65Z" fill="#263238"/>
<path opacity="0.2" d="M58.3957 119.286L59.1414 125.232L63.7957 124.913L63.0886 119.286H58.3957Z" fill="black"/>
<path d="M85.7643 70.0364C85.7643 70.0364 50.0643 73.2178 50.45 91.2303C50.8486 109.966 57.8171 122.601 57.8171 122.601H64.7857C64.7857 122.601 63.4657 112.881 63.7014 94.4376C63.77 88.9142 74.8871 87.0888 85.7386 86.4431C95.1157 85.8834 103.893 80.515 107.536 71.8058L108.286 70.0364H85.7643Z" fill="#407BFF"/>
<path opacity="0.5" d="M85.7643 70.0364C85.7643 70.0364 50.0643 73.2178 50.45 91.2303C50.8486 109.966 57.8171 122.601 57.8171 122.601H64.7857C64.7857 122.601 63.4657 112.881 63.7014 94.4376C63.77 88.9142 74.8871 87.0888 85.7386 86.4431C95.1157 85.8834 103.893 80.515 107.536 71.8058L108.286 70.0364H85.7643Z" fill="white"/>
<path d="M56.1843 120.72C56.1543 120.72 57.38 123.957 57.38 123.957L65.7971 123.35L65.3043 120.423L56.1843 120.72Z" fill="#407BFF"/>
<path d="M95.1371 49.7938L90.6071 67.3284C89.4489 71.8206 88.8642 76.4426 88.8671 81.0831V89.2327C88.8671 91.2905 90.3757 92.9609 92.24 92.9609H115.46C117.324 92.9609 118.833 91.2905 118.833 89.2327V81.0831C118.831 76.4425 119.417 71.8205 120.577 67.3284L124.576 51.8301C125.193 49.4494 123.573 47.0945 121.331 47.0945H98.3771C96.8097 47.144 95.4755 48.2556 95.1371 49.7938Z" fill="#263238"/>
<path d="M66.2557 84.4711L67.0143 88.8193C67.4171 91.1053 69.4186 92.9608 71.4886 92.9608H97.3014C99.3714 92.9608 100.73 91.1053 100.327 88.8193L99.5686 84.4711C99.11 81.8666 96.8343 79.7571 94.4771 79.7571H69.7143C67.34 79.7571 65.8014 81.8666 66.2557 84.4711Z" fill="#263238"/>
<path d="M99.7871 97.3263H86.2657L84.9457 92.9609H101.107L99.7871 97.3263Z" fill="#407BFF"/>
<rect x="90.6114" y="97.3262" width="4.83" height="32.4646" fill="#407BFF"/>
<path opacity="0.7" d="M95.4414 129.791H90.6114V98.1055L95.4414 98.6006V129.791Z" fill="white"/>
<path opacity="0.7" d="M94.2629 129.791H93.11V98.3594L94.2629 98.4799V129.791Z" fill="white"/>
<path d="M104.133 134.811H81.9157C81.6501 134.808 81.4158 134.635 81.3341 134.381C81.2524 134.127 81.3417 133.849 81.5557 133.691L85.0786 131.108C86.7722 129.862 88.8165 129.19 90.9157 129.188H95.1371C97.235 129.19 99.2777 129.863 100.97 131.108L104.497 133.691C104.712 133.85 104.801 134.129 104.718 134.383C104.635 134.638 104.399 134.81 104.133 134.811Z" fill="#407BFF"/>
</svg>
